PathFileType	4	(X/Y/Z)	C:/Users/beibeiliu/ov580/test_trc\sequence.11_training_dense_left.trc
DataRate	CameraRate	NumFrames	NumMarkers	Units	OrigDataRate	OrigDataStartFrame	OrigNumFrames
120	120	17	19	mm	120	249	398
Frame#	Time	ThumbCMC			ThumbMCP			ThumbIP			ThumbTip			IndexMCP			IndexPIP			IndexTip			MiddleMCP			MiddlePIP			MiddleTip			RingMCP			RingPIP			RingTip			PinkyMCP			PinkyPIP			PinkyTip			BackHand1			BackHand2			BackHand3	
		X0	Y0	Z0	X1	Y1	Z1	X2	Y2	Z2	X3	Y3	Z3	X4	Y4	Z4	X5	Y5	Z5	X6	Y6	Z6	X7	Y7	Z7	X8	Y8	Z8	X9	Y9	Z9	X10	Y10	Z10	X11	Y11	Z11	X12	Y12	Z12	X13	Y13	Z13	X14	Y14	Z14	X15	Y15	Z15	X16	Y16	Z16	X17	Y17	Z17	X18	Y18	Z18	
248	2.06667	-233.249	0.608641	23.9429	-219.885	23.0051	3.16516	-197.397	25.2154	-7.68258	-171.396	15.5941	-3.06224	-214.61	-2.82588	-35.8693	-214.124	6.03291	-58.5501	-209.008	14.6081	-79.2556	-187.799	-10.7019	-35.844	-183.661	-5.66409	-61.0125	-174.326	-3.06057	-80.4709	-173.026	-12.5768	-22.7184	-164.607	-9.61211	-44.1227	-156.385	-9.31236	-60.6524	-156.625	-11.7336	-2.3121	-143.853	-8.61684	-16.0013	-128.566	-12.6403	-29.0144	-189.461	-26.5368	10.4982	-198.846	-38.0291	33.8228	-216.518	-28.0789	17.3265	
249	2.075	-232.289	0.555338	21.8477	-218.611	23.3662	1.40786	-192.823	23.8483	-10.5641	-169.754	17.6172	-4.54611	-213.812	-2.31004	-40.166	-212.364	5.78259	-57.0613	-210.673	15.2694	-78.1918	-188.936	-9.82012	-35.5108	-180.237	-5.9075	-57.7237	-169.174	-2.93884	-81.2401	-171.241	-12.5828	-23.073	-161.355	-9.87027	-45.543	-152.115	-8.57619	-65.0151	-155.634	-12.5669	-4.48467	-142.874	-9.77257	-13.6242	-129.274	-13.1547	-26.1863	-185.739	-29.6037	11.8027	-198.274	-35.7956	34.5126	-219.341	-29.5515	16.4771	
250	2.08333	-228.172	-0.99211	22.6686	-216.67	24.7043	0.852246	-191.715	23.3764	-9.44276	-171.22	17.1879	-4.50371	-216.687	-1.75689	-38.6194	-209.009	5.18005	-57.3506	-206.821	15.6547	-82.9974	-185.994	-10.0572	-39.8899	-181.336	-4.59038	-60.0828	-169.859	-2.90571	-79.9722	-172.579	-11.6917	-23.7776	-158.303	-9.68522	-42.4844	-152.439	-8.20744	-60.9211	-156.861	-12.1951	-3.44453	-141.923	-8.89428	-14.2841	-130.114	-12.1488	-25.3465	-190.248	-28.9054	11.2653	-198.623	-36.1209	34.4903	-216.295	-28.3838	16.6123	
251	2.09167	-231.779	1.56976	24.5979	-217.408	25.8344	3.1581	-191.84	24.2448	-7.8604	-169.918	13.273	-2.57201	-213.182	-0.386811	-39.8451	-209.538	8.03099	-59.1066	-207.801	16.4229	-78.489	-188.152	-8.09998	-38.9154	-178.911	-4.33087	-57.5557	-169.87	-1.81366	-80.1741	-169.686	-12.1367	-25.9669	-161.484	-8.91888	-43.458	-150.142	-7.42013	-61.6609	-157.244	-10.5847	-2.75506	-142.666	-8.62282	-14.3446	-128.363	-11.4954	-29.1548	-189.919	-28.0126	9.13382	-198.373	-37.671	34.4782	-213.995	-29.9956	14.7995	
252	2.1	-229.058	0.221951	25.6767	-215.562	24.9974	-0.630282	-192.861	25.7451	-8.64842	-167.909	16.4596	-2.94432	-214.306	-0.446341	-36.3838	-206.786	9.16308	-60.1329	-205.117	16.4726	-80.8039	-185.34	-8.04373	-39.094	-180.149	-3.13394	-57.6325	-169.214	-0.836619	-83.7178	-170.176	-10.9308	-24.304	-161.702	-7.35539	-40.6932	-149.455	-6.35764	-58.0979	-151.405	-10.9564	-2.01445	-140.966	-6.05782	-18.0142	-128.829	-8.23388	-29.877	-189.537	-26.5485	12.3152	-198.197	-37.4087	34.0579	-216.043	-29.189	14.5947	
253	2.10833	-233.104	2.29944	25.973	-216.543	24.0624	2.78219	-192.341	26.5857	-9.70036	-166.329	17.8785	-3.96579	-209.859	-0.776894	-39.1968	-210.255	8.03889	-56.5607	-208.968	15.819	-78.1426	-186.177	-7.2263	-39.4482	-181.147	-3.82086	-56.6174	-169.17	-0.335595	-79.865	-167.38	-10.5127	-25.5831	-158.025	-7.67626	-41.1261	-148.369	-5.63677	-61.8984	-152.715	-10.6321	-2.25368	-140.221	-5.93897	-16.5281	-128.475	-9.85744	-25.0643	-186.989	-27.2938	9.58941	-195.478	-37.1633	32.0059	-217.692	-26.266	13.3401	
254	2.11667	-229.863	-0.486388	21.256	-217.167	25.1396	0.140632	-194.111	25.9393	-8.74919	-167.198	14.4863	-2.35852	-214.273	-0.82463	-37.6487	-211.621	8.00831	-58.4818	-207.845	16.7663	-81.516	-186.278	-9.63467	-34.7432	-180.03	-5.11161	-57.1257	-168.727	-2.11173	-83.9188	-169.729	-11.8617	-22.9982	-160.148	-8.11654	-44.9518	-148.593	-6.36981	-61.7773	-153.013	-10.7763	-0.628262	-143.673	-6.59889	-15.3984	-129.303	-9.44573	-28.1535	-189.34	-27.3794	9.49463	-197.772	-35.4329	32.9121	-218.228	-28.1568	15.3713	
255	2.125	-229.471	-1.83934	21.3621	-219.125	22.667	1.52087	-195.003	25.448	-9.49307	-169.603	13.3981	-1.99952	-214.057	-3.34153	-37.8948	-208.814	6.15552	-60.842	-205.907	13.2051	-79.0634	-190.206	-9.3129	-39.4414	-178.779	-6.03665	-56.0634	-167.796	-3.57557	-80.6679	-173.074	-12.2166	-24.2895	-158.485	-9.49062	-43.8827	-151.574	-8.72151	-63.6142	-153.998	-11.7328	-4.77214	-142.488	-7.80078	-11.7782	-127.763	-10.6819	-26.4657	-189.942	-27.3632	9.83615	-198.66	-37.0861	32.7924	-216.034	-30.9819	16.2153	
256	2.13333	-234.26	-2.17606	23.5053	-220.633	22.9972	0.212458	-196.338	20.686	-8.80542	-168.901	13.2269	-4.17827	-217.151	-3.82655	-36.8615	-214.227	6.02607	-62.3854	-208.151	12.9749	-81.8273	-186.964	-11.352	-35.8381	-180.072	-7.92981	-57.2555	-171.135	-5.25094	-79.7651	-172.694	-11.8171	-27.339	-161.596	-10.3751	-42.8307	-153.086	-8.74597	-61.2083	-156.213	-12.059	-2.75117	-146.965	-8.40541	-16.6596	-132.996	-10.3369	-26.6641	-189.366	-27.4627	9.98709	-199.078	-39.0787	32.7172	-215.829	-32.4836	15.9877	
257	2.14167	-236.721	-1.74224	23.7427	-222.031	21.9541	-1.35049	-199.723	21.1378	-8.17307	-174.138	13.4026	-3.43182	-218.672	-4.20795	-41.6675	-211.199	4.49945	-61.534	-208.643	11.0724	-79.2	-193.154	-12.3063	-39.6427	-180.018	-8.18908	-61.3185	-174.424	-5.77902	-82.5546	-175.255	-13.836	-22.6124	-163.979	-11.3331	-41.5032	-158.473	-9.50865	-61.1006	-157.94	-11.7254	-2.81718	-145.412	-8.19319	-16.9053	-131.64	-12.7276	-26.2409	-190.91	-27.3156	9.04178	-199.464	-40.1521	33.7074	-216.05	-30.1409	11.5712	
258	2.15	-235.533	-2.91638	23.2059	-224.102	21.0915	3.97077	-198.34	24.4843	-12.0847	-174.907	14.3433	-6.35617	-218.295	-4.11565	-39.4208	-214.089	3.03156	-59.3113	-212.15	9.99578	-78.8973	-190.518	-13.5082	-37.3192	-184.954	-8.67651	-61.91	-171.486	-7.1185	-82.9418	-175.641	-13.6353	-26.3298	-167.779	-12.2118	-45.5474	-156.097	-13.087	-63.7864	-159.248	-13.5138	-6.37127	-144.192	-11.1322	-17.0097	-135.375	-11.5092	-26.7251	-191.292	-30.4057	11.9717	-203.251	-39.6333	31.7161	-218.865	-30.8947	14.0546	
259	2.15833	-236.998	-1.46609	20.6889	-223.413	22.0866	0.899765	-197.877	20.8762	-11.8625	-172.778	15.4006	-6.86902	-218.602	-5.16958	-38.887	-220.842	3.11202	-58.569	-217.021	10.1406	-79.5719	-193.47	-13.6397	-38.1194	-186.527	-10.1196	-57.2372	-176.34	-7.1104	-84.7954	-174.812	-14.7963	-25.7603	-168.169	-12.6046	-41.89	-160.263	-12.1999	-64.788	-164.17	-14.3268	-3.32293	-146.921	-11.1972	-14.4434	-136.373	-12.8086	-31.1345	-191.968	-32.9063	13.0715	-204.222	-39.662	33.0943	-224.745	-32.036	11.5879	
260	2.16667	-236.204	-2.79163	20.6661	-223.976	21.5791	-0.444415	-199.858	21.5948	-11.2441	-176.565	14.7935	-6.24964	-218.957	-4.91681	-41.69	-216.046	2.21552	-58.2951	-217.565	9.67297	-81.4134	-195.597	-13.5133	-38.2291	-188.187	-10.3077	-58.4538	-178.316	-8.46964	-84.7882	-180.616	-14.5561	-24.8302	-171.241	-12.8708	-43.5094	-160.45	-12.0624	-62.3102	-159.72	-14.5555	-7.41966	-151.433	-12.2826	-15.9359	-136.746	-14.8513	-32.8673	-192.472	-31.5464	12.2625	-203.33	-40.4715	32.6656	-220.641	-32.126	13.6239	
261	2.175	-237.432	-4.36042	22.6903	-223.557	20.9644	-1.00795	-197.195	18.1485	-12.3144	-174.78	10.3587	-6.45168	-223.923	-5.21942	-42.6704	-220.908	2.67808	-63.9713	-214.038	8.55175	-83.8358	-195.502	-15.2691	-40.9751	-185.121	-11.973	-61.2233	-176.871	-9.87784	-81.3396	-178.276	-16.4823	-24.6522	-166.335	-15.7298	-45.0745	-161.348	-14.2424	-63.9471	-163.837	-15.7577	-6.0655	-150.715	-12.1263	-16.66	-137.437	-14.2626	-32.4654	-193.759	-30.3006	6.92368	-201.453	-41.5739	29.2062	-226.678	-33.2242	10.861	
262	2.18333	-237.149	-5.40984	20.5469	-222.028	16.1973	-2.00703	-201.264	19.3866	-11.3451	-172.143	6.81681	-6.09252	-218.834	-7.11366	-44.5295	-220.209	1.93643	-66.381	-213.096	7.00757	-87.5013	-195.516	-15.4211	-40.0051	-187.544	-13.1732	-62.9205	-175.096	-12.167	-85.1065	-176.969	-17.7261	-28.0796	-166.155	-16.4722	-48.2196	-161.78	-15.8911	-65.102	-159.961	-18.0784	-7.58897	-146.307	-14.2426	-19.387	-138.834	-18.0698	-29.7792	-198.263	-33.514	7.91905	-203.267	-44.2356	32.0593	-222.29	-34.0994	11.6188	
263	2.19167	-239.038	-4.88309	18.9895	-221.712	17.8761	-6.20802	-196.985	17.2764	-15.6832	-174.795	5.4056	-7.80665	-221.646	-7.38518	-45.8306	-218.149	0.00865755	-68.026	-216.599	6.20469	-86.6647	-194.993	-16.7933	-42.1769	-185.011	-14.7616	-65.8522	-174.81	-14.0571	-90.0085	-180.115	-18.9929	-30.8327	-166.901	-17.8112	-46.6304	-161.472	-17.4532	-67.431	-162.571	-18.0034	-9.55263	-147.827	-15.0721	-23.4309	-134.799	-19.7214	-33.5023	-193.56	-33.6307	5.73457	-202.744	-43.9567	30.1483	-224.668	-33.8365	5.4474	
264	2.2	-234.202	-8.20095	18.332	-222.666	16.6809	-3.28375	-194.61	15.5963	-17.9095	-173.59	6.75345	-10.7799	-216.96	-9.54534	-46.9215	-219.303	-1.43024	-64.9501	-214.906	4.4693	-86.5662	-190.326	-18.5157	-46.9192	-186.563	-14.4397	-67.3618	-177.633	-13.7274	-90.0878	-176.827	-20.4964	-30.3125	-168.18	-18.2101	-51.8382	-160.446	-17.5864	-69.3686	-157.87	-19.9051	-12.4307	-148.198	-17.8234	-21.8831	-136.678	-18.3308	-34.2899	-195.798	-33.8638	3.23687	-201.557	-43.8735	25.37	-222.623	-37.7613	7.09032	
